<svg width="150" height="32" viewBox="0 0 150 32" fill="none" xmlns="http://www.w3.org/2000/svg">
<g clip-path="url(#clip0_81_842)">
<path fill-rule="evenodd" clip-rule="evenodd" d="M149.913 0.0123392H118.747V31.8632H149.913L130.585 27.3808V4.48272L149.913 0.0123392ZM112.476 31.8632V24.8857H98.9541V19.2893H110.506V12.3119H98.9541V6.98738H112.476V0.0099345H91.292V31.8632H112.476ZM84.9871 31.8632V0.0123392H77.4581L70.442 14.0538L63.4428 0.0123392H55.9259V31.8632H63.5879V16.6066L68.0081 24.4839H72.9097L77.3371 16.6066V31.8632H84.9871ZM147.738 28.7835C147.738 24.4526 147.738 20.1178 147.738 15.779C147.738 11.4401 147.734 7.10928 147.726 2.78647L144.581 3.44331L141.736 4.0376C141.736 6.01535 141.736 7.98106 141.736 9.95399V15.868C140.582 13.9432 139.473 12.0897 138.406 10.3077C137.383 8.59219 136.391 6.93926 135.443 5.35129L133.631 5.73144L131.937 6.08512V25.6051L133.873 25.9949C134.55 26.1344 135.257 26.274 135.98 26.4208V15.7765C136.948 17.5795 137.957 19.4537 139.007 21.3994L142.42 27.7296C143.24 27.8908 144.09 28.0593 144.961 28.2349L147.738 28.7835ZM146.514 41.1841L147.341 41.0974C147.368 41.3319 147.471 41.551 147.636 41.7206C147.815 41.8453 148.027 41.9139 148.245 41.9178C148.463 41.9216 148.678 41.8605 148.861 41.7423C148.923 41.6929 148.973 41.6304 149.009 41.5592C149.044 41.4881 149.063 41.4101 149.064 41.3308C149.067 41.2378 149.037 41.1466 148.979 41.0734C148.897 40.9851 148.793 40.921 148.677 40.8881C148.58 40.852 148.352 40.7895 148.006 40.7029C147.661 40.6356 147.335 40.4899 147.056 40.277C146.934 40.1691 146.836 40.0363 146.77 39.8877C146.704 39.7391 146.671 39.5781 146.673 39.4156C146.676 39.1925 146.744 38.975 146.869 38.7893C146.993 38.6036 147.169 38.4576 147.375 38.369C147.636 38.2655 147.915 38.2164 148.195 38.2247C148.618 38.1921 149.037 38.3183 149.371 38.5783C149.504 38.698 149.61 38.8444 149.682 39.0078C149.753 39.1713 149.789 39.348 149.787 39.5263L148.945 39.5552C148.926 39.3709 148.84 39.1998 148.703 39.074C148.547 38.9698 148.361 38.9207 148.173 38.9344C147.971 38.9204 147.771 38.9737 147.602 39.086C147.56 39.1163 147.525 39.1565 147.502 39.203C147.478 39.2495 147.466 39.301 147.467 39.3531C147.469 39.4036 147.481 39.4531 147.504 39.4984C147.526 39.5436 147.558 39.5835 147.598 39.6153C147.834 39.7571 148.095 39.8534 148.367 39.8993C148.681 39.9678 148.986 40.0711 149.277 40.2072C149.465 40.3087 149.625 40.4571 149.739 40.6379C149.852 40.8468 149.909 41.0815 149.903 41.3188C149.904 41.5615 149.835 41.7993 149.705 42.0045C149.571 42.2183 149.374 42.3862 149.141 42.4857C148.851 42.5981 148.541 42.6512 148.229 42.6421C147.794 42.6697 147.363 42.5369 147.019 42.2692C146.725 41.9836 146.545 41.6013 146.514 41.1937V41.1841ZM138.622 42.5699V39.0307H137.386V38.3089H140.698V39.0307H139.469V42.5796L138.622 42.5699ZM127.977 42.5699V38.3089H129.752C130.079 38.2943 130.406 38.3334 130.72 38.4244C130.923 38.5027 131.094 38.6468 131.204 38.8334C131.328 39.0363 131.392 39.2698 131.388 39.5071C131.399 39.7969 131.299 40.08 131.107 40.2986C130.891 40.5233 130.601 40.6633 130.29 40.6932C130.456 40.7894 130.606 40.9094 130.737 41.0493C130.919 41.2645 131.081 41.4957 131.221 41.7399L131.727 42.5796H130.72L130.118 41.6412C129.983 41.4253 129.834 41.2179 129.673 41.0205C129.604 40.9399 129.515 40.8779 129.416 40.84C129.277 40.8034 129.134 40.7872 128.99 40.7919H128.819V42.5796L127.977 42.5699ZM128.823 40.1038H129.45C129.704 40.1161 129.958 40.0983 130.207 40.0508C130.306 40.0199 130.392 39.9562 130.449 39.8704C130.511 39.7751 130.541 39.6634 130.536 39.5504C130.54 39.4245 130.5 39.3011 130.423 39.2015C130.342 39.109 130.23 39.0491 130.108 39.0331C130.04 39.0331 129.835 39.0211 129.494 39.0211H128.833L128.823 40.1038ZM122.035 42.5699H121.127L120.767 41.6075H119.095L118.747 42.5699H117.861L119.477 38.2993H120.37L122.035 42.5699ZM120.494 40.8857L119.911 39.305L119.349 40.8857H120.494ZM93.8807 42.5699V38.3089H96.7404V39.0307H94.713V40.0412H96.467V40.763H94.713V42.5796L93.8807 42.5699ZM83.6759 40.4574C83.6642 40.0832 83.73 39.7106 83.8694 39.3627C83.962 39.1455 84.0931 38.9467 84.2565 38.7756C84.4059 38.617 84.5872 38.4916 84.7888 38.4075C85.0721 38.2871 85.3784 38.2296 85.6863 38.2391C85.9605 38.2262 86.2344 38.2714 86.4897 38.3718C86.7449 38.4722 86.9758 38.6254 87.167 38.8214C87.5572 39.274 87.7551 39.8599 87.7186 40.455C87.7539 41.0449 87.556 41.6252 87.167 42.0719C86.7688 42.4472 86.241 42.6564 85.6924 42.6564C85.1437 42.6564 84.616 42.4472 84.2178 42.0719C83.8295 41.6295 83.6314 41.0532 83.6662 40.4671L83.6759 40.4574ZM84.5468 40.4286C84.5146 40.8231 84.6263 41.2159 84.8613 41.5353C84.9653 41.6534 85.0935 41.748 85.2372 41.8128C85.381 41.8776 85.537 41.9112 85.6948 41.9112C85.8526 41.9112 86.0086 41.8776 86.1524 41.8128C86.2961 41.748 86.4243 41.6534 86.5283 41.5353C86.763 41.212 86.8761 40.8168 86.8476 40.4189C86.8794 40.0293 86.7686 39.6414 86.5355 39.3266C86.4326 39.2073 86.3038 39.1128 86.1588 39.0503C86.0138 38.9878 85.8563 38.9588 85.6984 38.9657C85.5399 38.9597 85.3821 38.989 85.2364 39.0514C85.0907 39.1139 84.9609 39.2079 84.8565 39.3266C84.6168 39.6458 84.5031 40.0413 84.5371 40.4382L84.5468 40.4286ZM60.092 42.5699V40.7726L58.5678 38.2993H59.5549L60.5444 39.9835L61.5121 38.2993H62.4799L60.9484 40.7774V42.5699H60.092ZM48.6363 42.5699V38.3089H49.9041L50.6492 41.2177L51.3896 38.3089H52.6597V42.5796H51.8783V39.2111L51.0581 42.5796H50.2452L49.425 39.2111V42.5796L48.6363 42.5699ZM39.2686 42.5699V38.3089H42.3581V39.0307H40.1105V39.9787H42.1984V40.7005H40.1105V41.8577H42.4379V42.5796L39.2686 42.5699ZM29.5549 38.3089H31.0912C31.3574 38.3006 31.6235 38.3282 31.8823 38.3907C32.1247 38.4633 32.3428 38.5996 32.5138 38.7853C32.6942 38.984 32.8302 39.2186 32.9129 39.4734C33.0065 39.8019 33.0506 40.1425 33.0436 40.4839C33.0501 40.791 33.0076 41.0971 32.9178 41.391C32.8316 41.6723 32.6799 41.9295 32.475 42.1417C32.3076 42.3013 32.1044 42.4192 31.8823 42.4857C31.6399 42.5534 31.3888 42.585 31.1371 42.5796H29.5549V38.3089ZM30.3968 39.0307V41.8577H31.0234C31.1946 41.8619 31.3657 41.8482 31.5339 41.8169C31.6593 41.7854 31.7749 41.7234 31.8702 41.6364C31.98 41.5205 32.0568 41.3777 32.0928 41.2226C32.1569 40.9678 32.1854 40.7055 32.1775 40.443C32.1858 40.1869 32.1573 39.9308 32.0928 39.6827C32.0466 39.5275 31.9637 39.3856 31.8508 39.2689C31.7433 39.1679 31.609 39.0995 31.4638 39.0716C31.2358 39.0356 31.0049 39.0219 30.7742 39.0307H30.3968ZM23.6226 42.5796H22.7105L22.3476 41.6171H20.6734L20.3275 42.5796H19.4323L21.0557 38.3089H21.9484L23.6226 42.5796ZM22.0742 40.8953L21.4936 39.3146L20.9299 40.8953H22.0742ZM12.825 41.0108L13.6404 41.2683C13.5548 41.6769 13.3343 42.0454 13.0138 42.3149C12.6961 42.5511 12.3069 42.6725 11.9105 42.659C11.6531 42.667 11.3969 42.619 11.16 42.5184C10.9231 42.4179 10.7111 42.2671 10.5388 42.0767C10.163 41.6348 9.97167 41.0666 10.0041 40.4887C9.96767 39.8883 10.1603 39.2963 10.5436 38.831C10.7211 38.6363 10.9394 38.4828 11.1831 38.3813C11.4269 38.2799 11.6901 38.233 11.9541 38.2439C12.1825 38.2339 12.4105 38.2694 12.6249 38.3483C12.8393 38.4273 13.0357 38.548 13.2025 38.7035C13.4157 38.9228 13.5632 39.1969 13.6283 39.495L12.7984 39.6971C12.7573 39.494 12.6492 39.3102 12.4912 39.175C12.3283 39.045 12.1242 38.9768 11.9154 38.9826C11.7727 38.9775 11.6308 39.0052 11.5007 39.0636C11.3706 39.1221 11.2558 39.2096 11.1654 39.3194C10.9414 39.6424 10.8379 40.033 10.8726 40.4238C10.8726 40.9603 10.9646 41.3429 11.1581 41.5762C11.2467 41.6862 11.3596 41.7744 11.488 41.8341C11.6163 41.8937 11.7568 41.9232 11.8984 41.9203C12.1132 41.9227 12.3209 41.8435 12.4791 41.699C12.6613 41.5067 12.7788 41.2629 12.8154 41.0012L12.825 41.0108ZM4.21456 42.5892H3.30488L2.93956 41.6268H1.24843L0.900043 42.5892H0.00730084L1.62827 38.3185H2.52343L4.21456 42.5892ZM2.66617 40.905L2.08795 39.3242L1.52424 40.905H2.66617ZM49.7807 15.9329C49.7807 10.6397 49.7807 6.64332 46.6355 3.42166C44.4581 1.17685 41.8621 -0.0117188 38.1097 -0.0117188C34.3573 -0.0117188 31.7831 1.17685 29.5839 3.42166C26.4388 6.63129 26.4388 10.6397 26.4388 15.9329C26.4388 21.2262 26.4388 25.2226 29.5839 28.4442C31.7831 30.689 34.367 31.8752 38.1097 31.8752C41.8525 31.8752 44.446 30.689 46.6355 28.4442C49.7807 25.2226 49.7807 21.2141 49.7807 15.9329ZM42.2468 15.9329C42.2468 21.6568 41.8138 22.6698 41.1242 23.5937C40.7576 24.0354 40.2974 24.391 39.7765 24.6351C39.2556 24.8792 38.6868 25.0058 38.1109 25.0058C37.5351 25.0058 36.9663 24.8792 36.4454 24.6351C35.9244 24.391 35.4642 24.0354 35.0976 23.5937C34.4033 22.6674 33.9775 21.6568 33.9775 15.9329C33.9775 10.209 34.4033 9.15038 35.0976 8.23369C35.6541 7.48301 36.7307 6.86708 38.1073 6.86708C39.4839 6.86708 40.5678 7.48301 41.1242 8.23369C41.8138 9.15038 42.2468 10.209 42.2468 15.9329ZM23.2646 21.6568H15.5879C15.1041 23.4181 14.1654 25.006 11.6662 25.006C10.2896 25.006 9.24682 24.431 8.69521 23.6803C8.00811 22.7612 7.53391 21.6568 7.53391 15.9329C7.53391 10.209 8.01779 9.10948 8.69521 8.18557C9.25408 7.4349 10.2896 6.86467 11.6662 6.86467C14.1654 6.86467 15.1089 8.44783 15.5879 10.209H23.2646C22.142 3.29896 17.492 0.000308387 11.6759 0.000308387C7.93069 0.000308387 5.34682 1.18888 3.15004 3.43369C0.00488281 6.64332 0.00488281 10.6517 0.00488281 15.945C0.00488281 21.2382 0.00488281 25.2346 3.15004 28.4563C5.34682 30.7011 7.93069 31.8872 11.6759 31.8872C17.4823 31.8704 22.1323 28.5669 23.2646 21.6568ZM127.2 27.3735V10.8947H122.088V27.3735H127.2ZM127.2 8.46948V4.48272H122.088V8.45986L127.2 8.46948Z" fill="#333333"/>
</g>
<defs>
<clipPath id="clip0_81_842">
<rect width="150" height="32" fill="white"/>
</clipPath>
</defs>
</svg>
